<svg xmlns="http://www.w3.org/2000/svg" width="108" height="108" viewBox="0 0 108 108"><g fill="none" fill-rule="evenodd"><circle cx="54" cy="54" r="54" fill="#F0F0F0"/><path fill="#CCC" d="M27.422 16.875c.699 0 1.265.567 1.265 1.266v3.375a1.266 1.266 0 1 1-2.53 0V18.14c0-.7.566-1.266 1.265-1.266zm8.015 8.016c0 .699-.566 1.265-1.265 1.265h-3.375a1.266 1.266 0 1 1 0-2.531h3.375c.699 0 1.266.567 1.266 1.266zm-8.015 8.015a1.266 1.266 0 0 1-1.266-1.265v-3.375a1.266 1.266 0 1 1 2.532 0v3.375c0 .699-.567 1.265-1.266 1.265zm-8.016-8.015c0-.7.567-1.266 1.266-1.266h3.375a1.266 1.266 0 1 1 0 2.531h-3.375a1.266 1.266 0 0 1-1.266-1.265z"/><path fill="#DE5833" d="M69.719 29.627c0 6.827 9.288 10.81 9.288 10.81s9.274-3.982 9.274-10.81c0-3.983-2.182-5.69-4.637-5.69-2.455 0-4.637 3.035-4.637 3.035s-2.183-3.035-4.637-3.035c-2.455 0-4.651 1.707-4.651 5.69z"/><path fill="#FFF" stroke="#111" stroke-width="2" d="M54.463 80.168c6.026 0 10.887-.751 14.814-2.016 2.956 2.78 5.934 5.02 8.933 6.722.643.365 1.594-.352 1.478-1-.385-2.151-1.073-5.531-2.064-10.14 6.332-5.225 7.595-12.61 7.595-18.166 0-9.576-3.766-25.193-30.802-25.193-27.037 0-30.792 14.386-30.792 23.962-.002 9.576 3.8 25.83 30.838 25.83z"/><path fill="#DE5833" d="M39.053 52.052c0 10.825 14.963 17.14 14.963 17.14s14.942-6.314 14.942-17.14c0-6.314-3.516-9.02-7.472-9.02-3.954 0-7.47 4.81-7.47 4.81s-3.517-4.81-7.47-4.81c-3.955 0-7.493 2.706-7.493 9.02z"/></g></svg>