<svg xmlns="http://www.w3.org/2000/svg" xmlns:xlink="http://www.w3.org/1999/xlink" width="27" height="22"><use fill="#1CA1F2" transform="translate(-.004 -.009) scale(.95698)" xlink:href="#a"/><defs><path id="a" fill-rule="evenodd" d="M8.806 22.989c-3.244 0-6.263-.961-8.806-2.606.451.052.908.08 1.37.08 2.693 0 5.169-.928 7.136-2.485-2.514-.047-4.636-1.724-5.367-4.031a5.65 5.65 0 0 0 2.595-.099c-2.629-.532-4.61-2.879-4.61-5.689 0-.025 0-.05.002-.074a5.665 5.665 0 0 0 2.602.725 5.815 5.815 0 0 1-2.557-4.83c0-1.063.284-2.059.779-2.917 2.833 3.511 7.066 5.821 11.84 6.064a5.892 5.892 0 0 1-.149-1.324C13.641 2.599 16.214 0 19.387 0c1.651 0 3.145.706 4.193 1.834A11.448 11.448 0 0 0 27.228.425a5.818 5.818 0 0 1-2.526 3.21A11.353 11.353 0 0 0 28 2.721a11.735 11.735 0 0 1-2.865 3.005c.011.249.017.499.017.75 0 7.669-5.779 16.513-16.346 16.513z"/></defs></svg>