<svg xmlns="http://www.w3.org/2000/svg" xmlns:xlink="http://www.w3.org/1999/xlink" width="108" height="108" viewBox="0 0 108 108"><defs><path id="a" d="M54 0c29.823 0 54 23.955 54 53.505 0 29.55-24.177 53.504-54 53.504S0 83.055 0 53.505C0 23.955 24.177 0 54 0z"/><rect id="c" width="74" height="38" rx="2.531"/></defs><g fill="none" fill-rule="evenodd"><mask id="b" fill="#fff"><use xlink:href="#a"/></mask><use fill="#F0F0F0" xlink:href="#a"/><path fill="#CCC" d="M53.578 17.42c.7 0 1.266.566 1.266 1.265v4.993a1.266 1.266 0 1 1-2.532 0v-4.993c0-.699.567-1.265 1.266-1.265zm15.278 4.455c.586.381.753 1.165.372 1.751l-2.72 4.187a1.266 1.266 0 1 1-2.122-1.378l2.72-4.188a1.266 1.266 0 0 1 1.75-.372zm-30.556 0a1.266 1.266 0 0 1 1.751.372l2.72 4.188a1.266 1.266 0 0 1-2.123 1.378l-2.72-4.187a1.266 1.266 0 0 1 .372-1.75zM29 62a2 2 0 0 1 2 2v44a2 2 0 0 1-4 0V64a2 2 0 0 1 2-2zm16 0a2 2 0 0 1 2 2v44a2 2 0 0 1-4 0V64a2 2 0 0 1 2-2zm16 0a2 2 0 0 1 2 2v44a2 2 0 0 1-4 0V64a2 2 0 0 1 2-2zm16 0a2 2 0 0 1 2 2v44a2 2 0 0 1-4 0V64a2 2 0 0 1 2-2z" mask="url(#b)"/><g mask="url(#b)"><g transform="translate(16 35)"><use fill="#FFF" xlink:href="#c"/><rect width="72" height="36" x="1" y="1" stroke="#111" stroke-width="2" rx="2.531"/></g><path fill="#CCC" d="M55 55h18a1 1 0 0 1 0 2H55a1 1 0 0 1 0-2zm0-5h22a1 1 0 0 1 0 2H55a1 1 0 0 1 0-2z"/><path fill="#DE5833" d="M38.421 46C33.582 46 30 49.582 30 54.421 30 58.418 33.582 62 38.421 62 42.418 62 46 58.418 46 54.421 46 49.582 42.418 46 38.421 46z"/></g></g></svg>