<svg xmlns="http://www.w3.org/2000/svg" xmlns:xlink="http://www.w3.org/1999/xlink" width="108" height="108" viewBox="0 0 108 108"><defs><path id="a" d="M73.812 76.826a3.997 3.997 0 0 0 0-5.656L55.799 53.189a3.984 3.984 0 0 0-3.82-1.031c-8.17-8.201-12.251-12.305-12.245-12.31.244-.245.32-.58.275-.936l-1.097-3.397a.986.986 0 0 0-.233-.393 1.472 1.472 0 0 0-.39-.26l-5.271-2.769a1 1 0 0 0-1.197.191c-1.683 1.635-2.536 2.468-2.559 2.5a1.038 1.038 0 0 0-.184 1.104l2.835 5.359a.99.99 0 0 0 .236.404c.107.108.234.18.434.298l3.413 1.024a.998.998 0 0 0 .877-.267l12.256 12.257c-.365 1.338-.039 2.828 1.013 3.879l18.014 17.984a4 4 0 0 0 5.656 0z"/></defs><g fill="none" fill-rule="evenodd"><circle cx="54" cy="54" r="54" fill="#F0F0F0"/><use fill="#FFF" xlink:href="#a"/><path stroke="#111" stroke-width="2" d="M74.519 77.533a4.999 4.999 0 0 1-7.07 0L49.435 59.55a4.965 4.965 0 0 1-1.395-4.26L36.678 43.924a2.09 2.09 0 0 1-.838.036l-.131-.03-3.53-1.06-.104-.06a4.75 4.75 0 0 1-.334-.206 1.933 1.933 0 0 1-.747-.956l-2.8-5.293-.043-.093a2.037 2.037 0 0 1 .373-2.154l.002.002c.175-.19.713-.712 2.58-2.526a2 2 0 0 1 2.377-.377l5.262 2.764c.275.141.457.258.644.446.222.224.376.49.475.79l1.097 3.397.04.182c.044.347.017.687-.046.876l.25.253 2.295 2.308c1.977 1.988 4.915 4.939 8.812 8.852a4.969 4.969 0 0 1 4.193 1.405l18.013 17.981a4.997 4.997 0 0 1 .001 7.071z"/><path fill="#66ABFF" d="M77.503 48.402c-3.68 3.681-9.16 4.447-13.602 2.322L35.8 78.833a3.983 3.983 0 1 1-5.634-5.634l28.107-28.115c-2.113-4.44-1.346-9.91 2.33-13.585 3.48-3.48 8.569-4.363 12.868-2.654l-5.82 5.823a1.993 1.993 0 0 0 0 2.818l3.867 3.869c.778.777 2.04.777 2.816 0l5.821-5.823c1.709 4.3.826 9.39-2.652 12.87z"/></g></svg>