<svg width="108" height="108" viewBox="0 0 108 108" version="1.1" xmlns="http://www.w3.org/2000/svg" xmlns:xlink="http://www.w3.org/1999/xlink"><title>company-108</title><desc>Created with Sketch.</desc><g id="108x108" stroke="none" stroke-width="1" fill="none" fill-rule="evenodd" transform="translate(-794.000000, -521.000000)"><g id="company" transform="translate(794.000000, 521.000000)"><circle id="background" fill="#F0F0F0" cx="54" cy="54" r="54"/><g id="castle" transform="translate(11.812500, 1.687500)"><path d="M6.11568402,6.84464479 C7.78318273,8.38514071 8.82738648,10.5904323 8.82738648,13.0396106 C8.82738648,13.7017389 8.75106819,14.346042 8.60674837,14.9642033 C9.22490966,14.8198834 9.86921278,14.7435652 10.531341,14.7435652 C13.0459805,14.7435652 15.3035218,15.8443334 16.8483962,17.5903011 L15.0548926,19.3838046 C13.9721613,18.0934777 12.3475477,17.2731697 10.531341,17.2731697 C9.19366066,17.2731697 7.95991352,17.7181605 6.97005429,18.4681874 L5.10276425,16.6008973 C5.85279112,15.6110381 6.29778193,14.377291 6.29778193,13.0396106 C6.29778193,11.2889365 5.53560291,9.71627886 4.32496802,8.63536078 L6.11568402,6.84464479 Z" id="bird" fill="#CCC" transform="translate(10.586682, 13.114225) rotate(-45.000000) translate(-10.586682, -13.114225)"/><path d="M78.2637837,14.703769 C79.7133474,15.9418216 80.6323325,17.7829214 80.6323325,19.8386617 C80.6323325,20.2039626 80.6033142,20.5624858 80.5474567,20.9120521 C80.897023,20.8561947 81.2555463,20.8271763 81.6208472,20.8271763 C83.605634,20.8271763 85.3903412,21.6838191 86.6254073,23.0475431 L84.832009,24.8409414 C84.0582108,23.9337102 82.9067113,23.3584263 81.6208472,23.3584263 C80.4968364,23.3584263 79.4754938,23.7980013 78.7193494,24.5146213 L76.9448875,22.7401595 C77.6615076,21.9840151 78.1010825,20.9626725 78.1010825,19.8386617 C78.1010825,18.481655 77.4603807,17.2742922 76.4649782,16.5025746 L78.2637837,14.703769 Z" id="bird" fill="#CCC" transform="translate(81.545193, 19.772355) rotate(-45.000000) translate(-81.545193, -19.772355)"/><path d="M5.6733788,73.5663248 C5.87246118,73.2712562 6.12526772,73.016002 6.41824328,72.8141173 L8.1875,71.0448606 L8.1875,46.7017148 L5.77328644,44.2875013 C5.33577565,43.8499905 5.14334012,43.2602094 5.19597987,42.688749 C5.19034223,42.6157825 5.1875,42.5424015 5.1875,42.46875 L5.1875,32.15625 C5.1875,30.5856902 6.46069024,29.3125 8.03125,29.3125 L11.34375,29.3125 C12.9143098,29.3125 14.1875,30.5856902 14.1875,32.15625 L14.1875,34.3125 L17.1875,34.3125 L17.1875,32.15625 C17.1875,30.5856902 18.4606902,29.3125 20.03125,29.3125 L23.34375,29.3125 C24.9143098,29.3125 26.1875,30.5856902 26.1875,32.15625 L26.1875,34.3125 L29.1875,34.3125 L29.1875,32.15625 C29.1875,30.5856902 30.4606902,29.3125 32.03125,29.3125 L35.34375,29.3125 C36.9143098,29.3125 38.1875,30.5856902 38.1875,32.15625 L38.1875,42.1172621 C38.5073897,42.8493591 38.367805,43.733899 37.7687459,44.3329581 L35.1875,46.914204 L35.1875,50.3125 L49.1875,50.3125 L49.1875,46.7017148 L46.7732864,44.2875013 C46.3357756,43.8499905 46.1433401,43.2602094 46.1959799,42.688749 C46.1903422,42.6157825 46.1875,42.5424015 46.1875,42.46875 L46.1875,32.15625 C46.1875,30.5856902 47.4606902,29.3125 49.03125,29.3125 L52.34375,29.3125 C53.9143098,29.3125 55.1875,30.5856902 55.1875,32.15625 L55.1875,34.3125 L58.1875,34.3125 L58.1875,32.15625 C58.1875,30.5856902 59.4606902,29.3125 61.03125,29.3125 L64.34375,29.3125 C65.9143098,29.3125 67.1875,30.5856902 67.1875,32.15625 L67.1875,34.3125 L70.1875,34.3125 L70.1875,32.15625 C70.1875,30.5856902 71.4606902,29.3125 73.03125,29.3125 L76.34375,29.3125 C77.9143098,29.3125 79.1875,30.5856902 79.1875,32.15625 L79.1875,42.1172621 C79.5073897,42.8493591 79.367805,43.733899 78.7687459,44.3329581 L76.1875,46.914204 L76.1875,71.9232852 L77.7687459,73.504531 C78.3825527,74.1183378 78.5000514,75.0018672 78.1875,75.720727 L78.1875,77.46875 C78.1875,79.0393098 76.9143098,80.3125 75.34375,80.3125 L51.1875,80.3125 C50.0829305,80.3125 49.1875,79.4170695 49.1875,78.3125 L49.1875,68.5530599 C48.977794,65.0045808 46.1346676,62.3125 42.6875,62.3125 C39.2403324,62.3125 36.397206,65.0045808 36.1986055,68.4283192 C36.1969829,68.4562903 36.1932811,71.7510172 36.1875,78.3125 C36.1875,79.4170695 35.2920695,80.3125 34.1875,80.3125 L8.03125,80.3125 C6.46069024,80.3125 5.1875,79.0393098 5.1875,77.46875 L5.1875,75.15625 C5.1875,75.1049956 5.18887661,75.0538544 5.19161676,75.0028755 C5.1584357,74.4997305 5.31319967,73.9817649 5.6733788,73.5663248 Z" fill="#111" fill-rule="nonzero"/><path d="M34.1875,78.3125 L34.1875,68.3125 C34.4607707,63.8508103 38.160927,60.3125 42.6875,60.3125 C47.214073,60.3125 50.9142293,63.8508103 51.1730382,68.3125 L51.1875,78.3125 L52.03125,78.3125 L75.34375,78.3125 C75.8097403,78.3125 76.1875,77.9347403 76.1875,77.46875 L76.1875,75.15625 C76.1875,75.1072974 76.1833312,75.0593184 76.1753292,75.0126488 L76.3545323,74.9187446 L74.1875,72.7517123 L74.1875,46.0857769 L77.3545323,42.9187446 L77.1509503,42.7151626 C77.1747159,42.6372126 77.1875,42.5544742 77.1875,42.46875 L77.1875,32.15625 C77.1875,31.6902597 76.8097403,31.3125 76.34375,31.3125 L73.03125,31.3125 C72.5652597,31.3125 72.1875,31.6902597 72.1875,32.15625 L72.1875,36.3125 L65.1875,36.3125 L65.1875,32.15625 C65.1875,31.6902597 64.8097403,31.3125 64.34375,31.3125 L61.03125,31.3125 C60.5652597,31.3125 60.1875,31.6902597 60.1875,32.15625 L60.1875,36.3125 L53.1875,36.3125 L53.1875,32.15625 C53.1875,31.6902597 52.8097403,31.3125 52.34375,31.3125 L49.03125,31.3125 C48.5652597,31.3125 48.1875,31.6902597 48.1875,32.15625 L48.1875,42.46875 C48.1875,42.5878948 48.2121952,42.7012718 48.2567462,42.8040415 L51.1875,45.8732877 L51.1875,52.3125 L33.1875,52.3125 L33.1875,46.0857769 L36.3545323,42.9187446 L36.1509503,42.7151626 C36.1747159,42.6372126 36.1875,42.5544742 36.1875,42.46875 L36.1875,32.15625 C36.1875,31.6902597 35.8097403,31.3125 35.34375,31.3125 L32.03125,31.3125 C31.5652597,31.3125 31.1875,31.6902597 31.1875,32.15625 L31.1875,36.3125 L24.1875,36.3125 L24.1875,32.15625 C24.1875,31.6902597 23.8097403,31.3125 23.34375,31.3125 L20.03125,31.3125 C19.5652597,31.3125 19.1875,31.6902597 19.1875,32.15625 L19.1875,36.3125 L12.1875,36.3125 L12.1875,32.15625 C12.1875,31.6902597 11.8097403,31.3125 11.34375,31.3125 L8.03125,31.3125 C7.56525974,31.3125 7.1875,31.6902597 7.1875,32.15625 L7.1875,42.46875 C7.1875,42.5878948 7.21219519,42.7012718 7.25674621,42.8040415 L10.1875,45.8732877 L10.1875,71.8732877 L7.66474491,74.3960428 C7.49316514,74.4789154 7.35391536,74.6181651 7.27104279,74.7897449 C7.20193801,74.9774204 7.1875,75.0651491 7.1875,75.15625 L7.1875,77.46875 C7.1875,77.9347403 7.56525974,78.3125 8.03125,78.3125 L11.03125,78.3125 L34.1875,78.3125 Z" id="Path" fill="#FFF"/><path d="M59.8078832,81.3125 C57.5635929,79.6625445 56.1875,77.1397661 56.1875,74.3125 C56.1875,69.3419373 60.4407949,65.3125 66.1875,65.3125 C67.230115,65.3125 68.2489248,65.5069052 69.2040847,65.8629877 C69.4339647,62.7592267 72.0250005,60.3125 75.1875,60.3125 C78.5012085,60.3125 81.1875,62.9987915 81.1875,66.3125 C81.1875,68.0280884 80.4674698,69.5755047 79.3131199,70.6690384 C82.0379618,71.5947656 84.1875,74.2193421 84.1875,77.3125 C84.1875,78.7997481 83.6905556,80.1786665 82.8716568,81.3125 L59.8078832,81.3125 Z" id="bush" fill="#5B9E4D"/><path d="M59.1875,51.3125 C59.1875,48.8795034 60.7545034,47.3125 63.1875,47.3125 C64.6204966,47.3125 66.1875,48.8795034 66.1875,51.3125 L66.1875,61.46875 C66.1875,61.9347403 65.8097403,62.3125 65.34375,62.3125 L60.03125,62.3125 C59.5652597,62.3125 59.1875,61.9347403 59.1875,61.46875 L59.1875,51.3125 Z" id="window" fill="#CCC"/><path d="M18.1875,51.3125 C18.1875,48.8795034 19.7545034,47.3125 22.1875,47.3125 C23.6204966,47.3125 25.1875,48.8795034 25.1875,51.3125 L25.1875,61.46875 C25.1875,61.9347403 24.8097403,62.3125 24.34375,62.3125 L19.03125,62.3125 C18.5652597,62.3125 18.1875,61.9347403 18.1875,61.46875 L18.1875,51.3125 Z" id="window" fill="#CCC"/></g></g></g></svg>