<svg xmlns="http://www.w3.org/2000/svg" xmlns:xlink="http://www.w3.org/1999/xlink" width="108" height="108" viewBox="0 0 108 108"><defs><path id="a" d="M8.031 62.594h61v-41c0-1.417-.791-2-2-2h-57c-1.418 0-2 .593-2 2v41z"/><path id="b" d="M75.949 63.594c-.314 1.836-1.494 2.999-2.918 3h-70c-1.424-.001-2.603-1.164-2.917-3h75.835z"/></defs><g fill="none" fill-rule="evenodd"><path fill="#F0F0F0" d="M54 0c29.824 0 54 24.177 54 54s-24.176 54-54 54C24.177 108 0 83.823 0 54 0 24.176 24.177 0 54 0z"/><g transform="translate(15.969 13.406)"><g stroke-linecap="round" stroke-linejoin="round"><use fill="#FFF" xlink:href="#a"/><path stroke="#111" stroke-width="2" d="M7.031 63.594v-42c0-1.963 1.033-3 3-3h57c1.825 0 3 1.087 3 3v42h-63z"/></g><g stroke-linecap="round" stroke-linejoin="round"><use fill="#FFF" xlink:href="#b"/><path stroke="#111" stroke-width="2" d="M76.935 63.763c-.388 2.26-1.932 3.83-3.904 3.83h-70c-1.972 0-3.516-1.57-3.903-3.83l-.2-1.17h78.207l-.2 1.17z"/></g><path fill="#CCC" d="M15.031 54.594h46a1 1 0 0 1 0 2h-46a1 1 0 0 1 0-2zm0-5h46a1 1 0 0 1 0 2h-46a1 1 0 0 1 0-2zm0-5h46a1 1 0 0 1 0 2h-46a1 1 0 0 1 0-2zm0-5h46a1 1 0 0 1 0 2h-46a1 1 0 0 1 0-2z"/><rect width="20" height="11" x="14.031" y="25.594" fill="#66ABFF" rx=".844"/><path fill="#CCC" d="M37.875 25.594h9.313c.465 0 .843.378.843.843v9.313a.844.844 0 0 1-.843.844h-9.313a.844.844 0 0 1-.844-.844v-9.313c0-.465.378-.843.844-.843zm14 0h9.313c.465 0 .843.378.843.843v9.313a.844.844 0 0 1-.843.844h-9.313a.844.844 0 0 1-.844-.844v-9.313c0-.465.378-.843.844-.843zm-13.636-25a1.5 1.5 0 0 1 1.5 1.5v6a1.5 1.5 0 0 1-3 0v-6a1.5 1.5 0 0 1 1.5-1.5zm12.229.94a1.5 1.5 0 0 1 1.246 1.716l-.938 5.926a1.5 1.5 0 0 1-2.963-.469l.938-5.926a1.5 1.5 0 0 1 1.717-1.247zm11.941 2.799a1.5 1.5 0 0 1 .963 1.89l-1.854 5.706a1.5 1.5 0 1 1-2.853-.927l1.854-5.706a1.5 1.5 0 0 1 1.89-.963zm-48.34 0a1.5 1.5 0 0 1 1.89.963l1.853 5.706a1.5 1.5 0 1 1-2.853.927l-1.854-5.706a1.5 1.5 0 0 1 .963-1.89zm11.94-2.799a1.5 1.5 0 0 1 1.717 1.247l.938 5.926a1.5 1.5 0 1 1-2.963.47l-.938-5.927a1.5 1.5 0 0 1 1.247-1.716z"/></g></g></svg>