<svg xmlns="http://www.w3.org/2000/svg" width="108" height="108" viewBox="0 0 108 108"><g fill="none" fill-rule="evenodd"><circle cx="54" cy="54" r="54" fill="#F0F0F0"/><rect width="58" height="44" x="25" y="32" fill="#FFF" stroke="#111" stroke-width="2" rx="2"/><path fill="#CCC" d="M32.5 66h21a1.5 1.5 0 0 1 0 3h-21a1.5 1.5 0 0 1 0-3zm0-5h26a1.5 1.5 0 0 1 0 3h-26a1.5 1.5 0 0 1 0-3zm0-5h31a1.5 1.5 0 0 1 0 3h-31a1.5 1.5 0 0 1 0-3zm0-5h36a1.5 1.5 0 0 1 0 3h-36a1.5 1.5 0 0 1 0-3zM76 49H64c-.57 0-1-.442-1-1v-9c0-.558.43-1 1-1h12c.57 0 1 .442 1 1v9c0 .558-.43 1-1 1zm-17 0H32c-.564 0-1-.442-1-1v-9c0-.558.436-1 1-1h27c.564 0 1 .442 1 1v9c0 .558-.436 1-1 1zm21.579-30.437c-.7 0-1.266.566-1.266 1.265v5.063a1.266 1.266 0 1 0 2.531 0v-5.063c0-.699-.566-1.265-1.265-1.265zm13.802 8.85a1.266 1.266 0 0 0-1.682-.612l-4.588 2.14a1.266 1.266 0 0 0 1.07 2.294l4.588-2.14a1.266 1.266 0 0 0 .612-1.681zm-5.576-6.43a1.266 1.266 0 0 0-1.75.372l-2.758 4.246a1.266 1.266 0 0 0 2.123 1.379l2.757-4.246c.38-.586.214-1.37-.372-1.75z"/><path fill="#5B9E4D" d="M91.932 44.733l.011.011c-6.682 8.273-11.018 13.404-13.006 15.393a19.52 19.52 0 0 1-6.632 4.385c.134.466.206.961.206 1.474a5.163 5.163 0 0 1-1.987 4.109c-7.35 6.23-12.091 1.214-12.484-.985-.226-1.27.488-1.276 1.032-.724.646.656 2.296 1.557 3.924-3.78.062-.208.128-.396.197-.57l.06-.141c.097-.224.195-.415.3-.582.85-1.462 2.365-2.447 4.112-2.446a4.614 4.614 0 0 1 1.61.293 19.524 19.524 0 0 1 4.292-6.403c1.989-1.988 7.12-6.324 15.393-13.006l.01.01a2.11 2.11 0 0 1 2.962 2.962z"/></g></svg>