<svg width="108" height="108" viewBox="0 0 108 108" version="1.1" xmlns="http://www.w3.org/2000/svg" xmlns:xlink="http://www.w3.org/1999/xlink"><title>devices-6-108</title><desc>Created with Sketch.</desc><defs><path d="M8.03125,62.59375 L69.03125,62.59375 L69.03125,21.59375 C69.03125,20.1772028 68.2396909,19.59375 67.03125,19.59375 L10.03125,19.59375 C8.61318163,19.59375 8.03125,20.1865079 8.03125,21.59375 L8.03125,62.59375 Z" id="path-1"/><path d="M70.1135639,63.59375 C69.8233301,65.429987 68.7346158,66.5927361 67.4203876,66.59375 L2.8067402,66.59375 C1.49251196,66.5927361 0.403797688,65.429987 0.113563894,63.59375 L70.1135639,63.59375 Z" id="path-2"/></defs><g id="108x108" stroke="none" stroke-width="1" fill="none" fill-rule="evenodd" transform="translate(-1692.000000, -521.000000)"><g id="devices-6" transform="translate(1692.000000, 521.000000)"><path d="M54,0 C83.824,0 108,24.177 108,54 C108,83.823 83.824,108 54,108 C24.177,108 0,83.823 0,54 C0,24.176 24.177,0 54,0 Z" id="background" fill="#F0F0F0"/><g id="icon" transform="translate(15.968750, 13.406250)"><g id="Path" stroke-linecap="round" stroke-linejoin="round"><use fill="#FFF" fill-rule="evenodd" xlink:href="#path-1"/><path stroke="#111" stroke-width="2" d="M7.03125,63.59375 L7.03125,21.59375 C7.03125,19.6309646 8.06413361,18.59375 10.03125,18.59375 L67.03125,18.59375 C68.8559663,18.59375 70.03125,19.6814181 70.03125,21.59375 L70.03125,63.59375 L7.03125,63.59375 Z"/></g><g id="front" stroke-linecap="round" stroke-linejoin="round"><use fill="#FFF" fill-rule="evenodd" xlink:href="#path-2"/><path stroke="#111" stroke-width="2" d="M71.1013019,63.7498709 C70.7445403,66.0070122 69.3042966,67.5922969 67.4203876,67.59375 L2.80596872,67.5937497 C0.922831209,67.5922969 -0.517412556,66.0070122 -0.874174062,63.7498709 L-1.05690938,62.59375 L71.2840372,62.59375 L71.1013019,63.7498709 Z"/></g><path d="M22,37.59375 L22,35.59375 C22,34.4891805 22.8954305,33.59375 24,33.59375 C25.1045695,33.59375 26,34.4891805 26,35.59375 L26,37.59375 L22,37.59375 Z M28,37.59375 L28,35.59375 C28,33.384611 26.209139,31.59375 24,31.59375 C21.790861,31.59375 20,33.384611 20,35.59375 L20,37.59375 C19.4477153,37.59375 19,38.0414653 19,38.59375 L19,43.59375 C19,44.1460347 19.4477153,44.59375 20,44.59375 L28,44.59375 C28.5522847,44.59375 29,44.1460347 29,43.59375 L29,38.59375 C29,38.0414653 28.5522847,37.59375 28,37.59375 Z M20.7886093,25.59375 L23.3241432,23.0582161 C23.7146675,22.6676918 24.3478325,22.6676918 24.7383568,23.0582161 L27.2738907,25.59375 L33.03125,25.59375 C33.5835347,25.59375 34.03125,26.0414653 34.03125,26.59375 L34.03125,51.59375 C34.03125,52.1460347 33.5835347,52.59375 33.03125,52.59375 L15.03125,52.59375 C14.4789653,52.59375 14.03125,52.1460347 14.03125,51.59375 L14.03125,26.59375 C14.03125,26.0414653 14.4789653,25.59375 15.03125,25.59375 L20.7886093,25.59375 Z M15.03125,55.59375 L56.03125,55.59375 C56.5835347,55.59375 57.03125,56.0414653 57.03125,56.59375 C57.03125,57.1460347 56.5835347,57.59375 56.03125,57.59375 L15.03125,57.59375 C14.4789653,57.59375 14.03125,57.1460347 14.03125,56.59375 C14.03125,56.0414653 14.4789653,55.59375 15.03125,55.59375 Z M38.03125,50.59375 L54.03125,50.59375 C54.5835347,50.59375 55.03125,51.0414653 55.03125,51.59375 C55.03125,52.1460347 54.5835347,52.59375 54.03125,52.59375 L38.03125,52.59375 C37.4789653,52.59375 37.03125,52.1460347 37.03125,51.59375 C37.03125,51.0414653 37.4789653,50.59375 38.03125,50.59375 Z M38.03125,45.59375 L54.03125,45.59375 C54.5835347,45.59375 55.03125,46.0414653 55.03125,46.59375 C55.03125,47.1460347 54.5835347,47.59375 54.03125,47.59375 L38.03125,47.59375 C37.4789653,47.59375 37.03125,47.1460347 37.03125,46.59375 C37.03125,46.0414653 37.4789653,45.59375 38.03125,45.59375 Z M38.03125,40.59375 L54.03125,40.59375 C54.5835347,40.59375 55.03125,41.0414653 55.03125,41.59375 C55.03125,42.1460347 54.5835347,42.59375 54.03125,42.59375 L38.03125,42.59375 C37.4789653,42.59375 37.03125,42.1460347 37.03125,41.59375 C37.03125,41.0414653 37.4789653,40.59375 38.03125,40.59375 Z M38.03125,35.59375 L54.03125,35.59375 C54.5835347,35.59375 55.03125,36.0414653 55.03125,36.59375 C55.03125,37.1460347 54.5835347,37.59375 54.03125,37.59375 L38.03125,37.59375 C37.4789653,37.59375 37.03125,37.1460347 37.03125,36.59375 C37.03125,36.0414653 37.4789653,35.59375 38.03125,35.59375 Z M38.03125,30.59375 L54.03125,30.59375 C54.5835347,30.59375 55.03125,31.0414653 55.03125,31.59375 C55.03125,32.1460347 54.5835347,32.59375 54.03125,32.59375 L38.03125,32.59375 C37.4789653,32.59375 37.03125,32.1460347 37.03125,31.59375 C37.03125,31.0414653 37.4789653,30.59375 38.03125,30.59375 Z M38.03125,25.59375 L54.03125,25.59375 C54.5835347,25.59375 55.03125,26.0414653 55.03125,26.59375 C55.03125,27.1460347 54.5835347,27.59375 54.03125,27.59375 L38.03125,27.59375 C37.4789653,27.59375 37.03125,27.1460347 37.03125,26.59375 C37.03125,26.0414653 37.4789653,25.59375 38.03125,25.59375 Z" id="Combined-Shape" fill="#CCC"/><path d="M38.2386112,0.59375 C39.0670383,0.59375 39.7386112,1.26532288 39.7386112,2.09375 L39.7386112,8.09375 C39.7386112,8.92217712 39.0670383,9.59375 38.2386112,9.59375 C37.4101841,9.59375 36.7386112,8.92217712 36.7386112,8.09375 L36.7386112,2.09375 C36.7386112,1.26532288 37.4101841,0.59375 38.2386112,0.59375 Z M50.4675872,1.53398047 C51.285815,1.66357503 51.8440626,2.43193687 51.714468,3.25016468 L50.7758613,9.17629472 C50.6462667,9.99452254 49.8779049,10.5527701 49.059677,10.4231755 C48.2414492,10.293581 47.6832017,9.52521914 47.8127962,8.70699133 L48.751403,2.78086129 C48.8809976,1.96263347 49.6493594,1.40438592 50.4675872,1.53398047 Z M62.4090928,4.33256808 C63.1969739,4.58856614 63.6281502,5.43479733 63.3721521,6.22267834 L61.5180502,11.9290174 C61.2620521,12.7168985 60.4158209,13.1480748 59.6279399,12.8920767 C58.8400589,12.6360787 58.4088826,11.7898475 58.6648806,11.0019665 L60.5189826,5.29562736 C60.7749806,4.50774634 61.6212118,4.07657002 62.4090928,4.33256808 Z M14.0681295,4.33256808 C14.8560105,4.07657002 15.7022417,4.50774634 15.9582398,5.29562736 L17.8123417,11.0019665 C18.0683398,11.7898475 17.6371635,12.6360787 16.8492825,12.8920767 C16.0614014,13.1480748 15.2151703,12.7168985 14.9591722,11.9290174 L13.1050702,6.22267834 C12.8490722,5.43479733 13.2802485,4.58856614 14.0681295,4.33256808 Z M26.0096351,1.53398047 C26.8278629,1.40438592 27.5962248,1.96263347 27.7258193,2.78086129 L28.6644261,8.70699133 C28.7940207,9.52521914 28.2357731,10.293581 27.4175453,10.4231755 C26.5993175,10.5527701 25.8309557,9.99452254 25.7013611,9.17629472 L24.7627543,3.25016468 C24.6331598,2.43193687 25.1914073,1.66357503 26.0096351,1.53398047 Z" id="pop-2" fill="#CCC"/><g id="phone" transform="translate(49.000000, 15.000000)"><path d="M3.95942059,0.59375 L24.1030794,0.59375 C26.2725481,0.59375 28.03125,2.51958398 28.03125,4.89522059 L28.03125,48.2922794 C28.03125,50.667916 26.2725481,52.59375 24.1030794,52.59375 L3.95942059,52.59375 C1.78995188,52.59375 0.03125,50.667916 0.03125,48.2922794 L0.03125,4.89522059 C0.03125,2.51958398 1.78995188,0.59375 3.95942059,0.59375 Z" id="bezel" stroke="#111" stroke-width="2" fill="#FFF"/><path d="M12,25.59375 L12,23.59375 C12,22.4891805 12.8954305,21.59375 14,21.59375 C15.1045695,21.59375 16,22.4891805 16,23.59375 L16,25.59375 L12,25.59375 Z M18,25.59375 L18,23.59375 C18,21.384611 16.209139,19.59375 14,19.59375 C11.790861,19.59375 10,21.384611 10,23.59375 L10,25.59375 C9.44771525,25.59375 9,26.0414653 9,26.59375 L9,31.59375 C9,32.1460347 9.44771525,32.59375 10,32.59375 L18,32.59375 C18.5522847,32.59375 19,32.1460347 19,31.59375 L19,26.59375 C19,26.0414653 18.5522847,25.59375 18,25.59375 Z M4.03125,9.59375 L24.03125,9.59375 L24.03125,43.59375 L4.03125,43.59375 L4.03125,9.59375 Z" id="screen" fill="#F1A031"/><path d="M14.03125,49.59375 C15.1358195,49.59375 16.03125,48.6983195 16.03125,47.59375 C16.03125,46.4891805 15.1358195,45.59375 14.03125,45.59375 C12.9266805,45.59375 12.03125,46.4891805 12.03125,47.59375 C12.03125,48.6983195 12.9266805,49.59375 14.03125,49.59375 Z" id="button" fill="#111"/></g></g></g></g></svg>