<svg xmlns="http://www.w3.org/2000/svg" xmlns:xlink="http://www.w3.org/1999/xlink" width="108" height="108" viewBox="0 0 108 108"><defs><path id="a" d="M54 84c11.046 0 20-7.447 20-21.806C74 47.834 65.046 32 54 32S34 47.834 34 62.194C34 76.553 42.954 84 54 84z"/></defs><g fill="none" fill-rule="evenodd"><circle cx="54" cy="54" r="54" fill="#F0F0F0"/><use fill="#FFF" xlink:href="#a"/><path stroke="#111" stroke-width="2" d="M54 85c-12.392 0-21-8.697-21-22.806C33 46.55 42.783 31 54 31s21 15.551 21 31.194C75 76.304 66.392 85 54 85z"/><path fill="#5B9E4D" d="M59 86c2.245-15.95 10.579-23.283 25-22 1.137.313 1.032 1.676 0 2-7.654 3.377-10.75 6.737-11 11 5.689-5.045 11.355-6.045 17-3 1.26 1.073 1.34 2.242 0 2-7.297 1.675-11.185 4.858-13 10H59z"/><path fill="#111" d="M55.006 52.764l2.583-2.582a1.266 1.266 0 1 1 1.79 1.79L55.9 55.449a1.266 1.266 0 0 1-1.79 0l-4.372-4.372-4.722 4.722a1.266 1.266 0 0 1-1.79 0l-7.262-7.262a1.266 1.266 0 1 1 1.79-1.79l6.367 6.367 4.722-4.722a1.266 1.266 0 0 1 1.79 0l4.372 4.372z"/><path fill="#CCC" d="M53.818 17c.699 0 1.265.567 1.265 1.266v5.062a1.266 1.266 0 1 1-2.531 0v-5.062c0-.7.567-1.266 1.266-1.266zm15.296 4.497c.587.38.753 1.164.372 1.75l-2.757 4.246a1.266 1.266 0 0 1-2.123-1.378l2.758-4.246a1.266 1.266 0 0 1 1.75-.372zm10.402 12a1.266 1.266 0 0 1-.612 1.681l-4.588 2.14a1.266 1.266 0 1 1-1.07-2.294l4.588-2.14a1.266 1.266 0 0 1 1.682.612zm-51.397 0a1.266 1.266 0 0 1 1.682-.613l4.588 2.14a1.266 1.266 0 1 1-1.07 2.294l-4.588-2.14a1.266 1.266 0 0 1-.612-1.682zm10.402-12a1.266 1.266 0 0 1 1.75.372l2.758 4.246a1.266 1.266 0 0 1-2.123 1.378l-2.757-4.245a1.266 1.266 0 0 1 .372-1.751z"/></g></svg>