<svg xmlns="http://www.w3.org/2000/svg" width="108" height="108"><g fill="none" fill-rule="evenodd" transform="translate(-1)"><circle cx="54" cy="54" r="54"/><path fill="#CCC" d="M16.444 59.908c2.266-.1 4.56.711 6.284 2.436.465.465.864.971 1.196 1.508a8.489 8.489 0 0 1 1.204-1.514 8.42 8.42 0 0 1 6.483-2.46v2.527a5.895 5.895 0 0 0-4.706 1.71 5.889 5.889 0 0 0-1.673 3.334h-2.636a5.816 5.816 0 0 0-1.654-3.319 5.835 5.835 0 0 0-4.498-1.7v-2.522zM76.99 44.776a6.676 6.676 0 0 1 5.99 2.747c.208-.286.44-.56.699-.818a6.74 6.74 0 0 1 5.107-1.973v2.526a4.213 4.213 0 0 0-3.33 1.225 4.21 4.21 0 0 0-1.236 2.849h-2.5a4.176 4.176 0 0 0-4.73-4.022v-2.534z"/><path fill="#111" fill-rule="nonzero" d="M47.934 81.145l5.24-14.613a2 2 0 0 1 1.879-1.325h.414a2 2 0 0 1 1.886 1.325L61.59 78.35l-1.743 1.064-4.377-12.207h-.414l-5.503 15.35c-.458-.402-.998-.873-1.619-1.412z"/><path fill="#111" fill-rule="nonzero" d="M31.26 84.554a11.99 11.99 0 0 1 2.225-3.069c4.687-4.686 12.285-4.686 16.97 0 .87.87 1.58 1.84 2.126 2.874l-1.619 1.065a10 10 0 0 0-1.749-2.353c-3.905-3.905-10.237-3.905-14.142 0a9.991 9.991 0 0 0-1.858 2.562l-1.954-1.08zm25.945-4.614c3.914-3.774 10.147-3.73 14.008.131a9.954 9.954 0 0 1 2.568 4.4l-1.701.918a8 8 0 0 0-13.184-3.961l-1.691-1.488z"/><path fill="#111" fill-rule="nonzero" d="M19.81 89.54a9.965 9.965 0 0 1 2.261-3.469c3.905-3.905 10.237-3.905 14.142 0a9.953 9.953 0 0 1 2.728 5.07l-1.741.824a8 8 0 0 0-15.49-1.142l-1.9-1.282zm45.648.64a14 14 0 0 1 2.441-3.28c5.47-5.47 14.333-5.467 19.8 0a13.974 13.974 0 0 1 2.776 3.947l-1.555 1.205a11.973 11.973 0 0 0-2.464-3.567c-4.686-4.686-12.284-4.686-16.97 0a12.01 12.01 0 0 0-1.975 2.597l-2.053-.901z"/><path fill="#DE5833" d="M60.326 55.91c-.288.468-.54.827-.728 1.014-1.972 1.972-1.767 3.735-1.767 3.735a.83.83 0 0 1-.828.829l-3.03.011a.82.82 0 0 1-.824-.824s.214-1.764-1.747-3.726c-.186-.186-.432-.544-.712-1.012-1.193.102-2.04.249-2.23.438 0 0-1.697 1.742-2.298 2.344-.943.943-1.654.603-1.805-.52 0 0-.706-6.304.61-8.677.513-.925 1.764-1.572 2.709-1.187-3.585-11.73 1.195-23.783 7.946-30.534 6.345 6.345 11.777 18.295 7.908 30.424.923-.26 2.064.368 2.544 1.237 1.301 2.365.563 8.674.563 8.674-.158 1.125-.87 1.468-1.807.53-.6-.599-2.287-2.331-2.287-2.331-.188-.188-1.03-.33-2.217-.425z"/><path fill="#FFF" d="M53.578 28.379a3.025 3.025 0 0 0-.011 4.278 3.025 3.025 0 0 0 4.278-.012 3.025 3.025 0 0 0 .011-4.278 3.025 3.025 0 0 0-4.278.012z"/></g></svg>