<svg xmlns="http://www.w3.org/2000/svg" xmlns:xlink="http://www.w3.org/1999/xlink" width="108" height="108" viewBox="0 0 108 108"><defs><path id="a" d="M54 0c29.823 0 54 24.177 54 54 0 29.824-24.177 54-54 54S0 83.824 0 54C0 24.177 24.177 0 54 0z"/><path id="c" d="M57.356 92.897l-19.48 23.43c-2.61-.256-5.135-.8-7.55-1.588l26.759-22.113.27.271z"/><path id="d" d="M5.104 83.12l46.913-34.747.297.297-34.747 46.913A54.338 54.338 0 0 1 5.104 83.121z"/></defs><g fill="none" fill-rule="evenodd"><mask id="b" fill="#fff"><use xlink:href="#a"/></mask><use fill="#F0F0F0" xlink:href="#a"/><g stroke-linecap="round" stroke-linejoin="round" mask="url(#b)"><use fill="#FFF" xlink:href="#c"/><path stroke="#111" stroke-width="1.5" d="M58.37 92.851L38.2 117.112l-.397-.039a36.151 36.151 0 0 1-7.71-1.621l-1.295-.423 28.336-23.416 1.235 1.238z"/></g><g mask="url(#b)"><path fill="#DE5833" d="M69.337 88.259c.477.344.676 1.11.508 1.702-.486 1.706-3.707 4.299-3.707 4.299-.587.45-1.069.278-1.069-.595 0-.557.02-2.15.02-2.15 0-.197-.41-.757-1.024-1.47-.05.004-.095.007-.135.007-1.82 0-2.54.914-2.54.914a.54.54 0 0 1-.765 0l-1.404-1.402a.541.541 0 0 1 0-.765s.914-.72.914-2.543c0-.052.004-.114.013-.185-.734-.651-1.313-1.09-1.514-1.09 0 0-1.572.021-2.122.021-.861 0-1.031-.489-.587-1.082 0 0 2.56-3.262 4.245-3.754.657-.192 1.525.09 1.78.708a5.149 5.149 0 0 1 1.047-1.408c3.943-6.392 11.243-9.435 17.16-9.435 0 5.796-2.91 13.698-10.026 17.609-.105.081-.216.16-.333.237.026.081-.152.217-.461.382z"/><path fill="#FFF" d="M73.828 74.25a2.11 2.11 0 1 0 0 4.218 2.11 2.11 0 0 0 0-4.218z"/></g><g stroke-linecap="round" stroke-linejoin="round" mask="url(#b)"><use fill="#FFF" xlink:href="#d"/><path stroke="#111" stroke-width="2" d="M3.717 82.903l48.396-35.846 1.519 1.514-35.848 48.4-.8-.575A55.338 55.338 0 0 1 4.292 83.704l-.575-.8z"/></g><path fill="#FFF" d="M30.943 93.078c.208.956.317 1.949.317 2.967 0 7.687-6.231 13.922-13.922 13.922-7.69 0-13.922-6.235-13.922-13.922 0-2.328.572-4.523 1.582-6.452a10.126 10.126 0 0 1-5.8-9.157c0-5.592 4.533-10.126 10.125-10.126.887 0 1.747.115 2.566.329.48-6.32 5.758-11.297 12.2-11.297a12.2 12.2 0 0 1 8.866 3.805 7.594 7.594 0 1 1 5.594 13.788 10.08 10.08 0 0 1 1.992 6.032c0 5.415-4.25 9.837-9.598 10.111z" mask="url(#b)"/><path fill="#111" fill-rule="nonzero" d="M39.089 61.275a8.002 8.002 0 0 1-.97 15.647l.042-2.034a6.002 6.002 0 0 0 .48-11.661l.448-1.952zm-27.087 9.497C12.124 64.25 17.45 59 24 59c5.34 0 9.867 3.49 11.423 8.312l-1.926.548C32.18 63.875 28.426 61 24 61c-5.358 0-9.732 4.214-9.988 9.509l-2.01.263z" mask="url(#b)"/><path fill="#111" fill-rule="nonzero" d="M30.7 92.996l-.147-2.008a8 8 0 1 0-1.241-15.81l-.329-1.975A10.045 10.045 0 0 1 31 73c5.523 0 10 4.477 10 10s-4.477 10-10 10c-.1 0-.201-.001-.3-.004zM6.027 89.55A10.002 10.002 0 0 1-1 80c0-5.523 4.477-10 10-10 4.51 0 8.323 2.986 9.57 7.088l-1.971.403a8 8 0 1 0-9.191 10.35l-1.381 1.71z" mask="url(#b)"/><path fill="#111" fill-rule="nonzero" d="M6.02 88.752l1.305 1.76A11.949 11.949 0 0 0 6 96c0 6.627 5.373 12 12 12s12-5.373 12-12-5.373-12-12-12c-.738 0-1.46.067-2.162.194l-.446-1.952A14.096 14.096 0 0 1 18 82c7.734 0 14 6.27 14 14s-6.266 14-14 14-14-6.27-14-14c0-2.653.738-5.133 2.02-7.248z" mask="url(#b)"/><path fill="#CCC" d="M30.559 29.348a1.266 1.266 0 0 1 0 1.79l-2.387 2.386a1.266 1.266 0 1 1-1.79-1.79l2.387-2.386a1.266 1.266 0 0 1 1.79 0zm0 11.336a1.266 1.266 0 0 1-1.79 0l-2.387-2.387a1.266 1.266 0 1 1 1.79-1.79l2.387 2.387a1.266 1.266 0 0 1 0 1.79zm-11.336 0a1.266 1.266 0 0 1 0-1.79l2.386-2.387a1.266 1.266 0 1 1 1.79 1.79l-2.386 2.387a1.266 1.266 0 0 1-1.79 0zm0-11.336a1.266 1.266 0 0 1 1.79 0l2.386 2.386a1.266 1.266 0 1 1-1.79 1.79l-2.386-2.386a1.266 1.266 0 0 1 0-1.79zM92.05 52.231a1.266 1.266 0 0 1 0 1.79l-1.193 1.193a1.266 1.266 0 1 1-1.79-1.79l1.193-1.193a1.266 1.266 0 0 1 1.79 0zm0 7.756a1.266 1.266 0 0 1-1.79 0l-1.193-1.193a1.266 1.266 0 1 1 1.79-1.79l1.193 1.194a1.266 1.266 0 0 1 0 1.79zm-7.756 0a1.266 1.266 0 0 1 0-1.79l1.193-1.193a1.266 1.266 0 1 1 1.79 1.79l-1.193 1.193a1.266 1.266 0 0 1-1.79 0zm0-7.756a1.266 1.266 0 0 1 1.79 0l1.193 1.194a1.266 1.266 0 1 1-1.79 1.79l-1.193-1.194a1.266 1.266 0 0 1 0-1.79z"/><path fill="#DE5833" d="M64.714 44.847c-.67.16-1.21.255-1.542.255-3.49 0-4.87 1.751-4.87 1.751a1.036 1.036 0 0 1-1.466 0l-2.692-2.686a1.036 1.036 0 0 1 0-1.466s1.751-1.38 1.751-4.87c0-.33.1-.869.267-1.534-1.147-.97-2.027-1.595-2.362-1.595 0 0-3.044.04-4.11.04-1.668 0-1.996-.934-1.137-2.068 0 0 4.956-6.238 8.22-7.179 1.273-.366 2.953.172 3.449 1.355 7.21-13.628 22.108-20.1 34.06-20.1 0 11.292-5.77 26.76-19.93 34.11 1.047.59 1.501 2.163 1.156 3.364-.94 3.263-7.178 8.22-7.178 8.22-1.136.86-2.07.532-2.07-1.137 0-1.066.04-4.11.04-4.11 0-.334-.62-1.209-1.586-2.35z"/><path fill="#FFF" d="M83.11 14.344a3.796 3.796 0 1 0-.002 7.593 3.796 3.796 0 0 0 .001-7.593z"/></g></svg>