<svg xmlns="http://www.w3.org/2000/svg" xmlns:xlink="http://www.w3.org/1999/xlink" width="108" height="108" viewBox="0 0 108 108"><defs><circle id="a" cx="54" cy="54" r="54"/><path id="c" d="M96.216 93.652c-9.444 9.695-27.699 19.1-42.303 19.1-14.702 0-33.031-9.486-42.49-19.295 6.743-4.217 29.757-11.298 32.484-19.34 0 0-1.664-4.52-2.005-9.37 0 0-5.18-3.28-5.495-10.79-.314-7.516 1.719-3.654 1.719-3.654S31.102 24.837 53.76 24.837c4.167 0 3.625 1.669 5.587 1.669 16.678 0 10.926 23.168 10.926 23.168s1.596-1.032 1.545 2.09c-.043 2.657-1.469 10.522-5.766 12.727 0 0-1.457 6.514-2.734 9.74 1.717 7.061 25.712 14.842 32.898 19.422z"/></defs><g fill="none" fill-rule="evenodd"><mask id="b" fill="#fff"><use xlink:href="#a"/></mask><use fill="#F0F0F0" xlink:href="#a"/><g stroke-linecap="round" stroke-linejoin="round" mask="url(#b)"><use fill="#FFF" xlink:href="#c"/><path stroke="#111" stroke-width="2" d="M42.844 74.106a42.31 42.31 0 0 1-.94-3.232c-.465-1.87-.802-3.752-.962-5.576-.74-.552-1.674-1.445-2.6-2.706-1.712-2.328-2.791-5.189-2.934-8.593-.146-3.497.149-5.424 1.266-5.692a37.546 37.546 0 0 1-.048-.276c-.6-3.515-.749-7.178-.166-10.628 1.423-8.419 6.874-13.567 17.3-13.567 1.971 0 3.155.327 4.172 1 .145.096.539.379.544.383.32.22.498.285.871.285 7.88 0 11.852 4.777 12.711 12.474.337 3.02.168 6.232-.318 9.347-.073.47-.15.912-.228 1.323.917.383 1.333 1.456 1.306 3.132-.078 4.793-2.227 11.11-5.89 13.362a121.458 121.458 0 0 1-.327 1.381c-.33 1.36-.68 2.719-1.036 3.99a57.498 57.498 0 0 1-.874 2.867c-.108.32-.214.617-.318.893.326.927 1.176 1.98 2.538 3.123 2.798 2.349 7.278 4.786 14.234 7.975 1.662.761 7.67 3.445 8.91 4.013 3.172 1.453 5.251 2.502 6.699 3.425l1.037.66-.858.88c-10.355 10.63-28.993 19.403-43.02 19.403-14.131 0-32.852-8.859-43.21-19.6l-.857-.889 1.046-.654c1.395-.872 3.392-1.845 6.642-3.286-.47.208 6.807-2.974 8.923-3.94 9.523-4.351 14.995-7.9 16.387-11.277z"/></g><path fill="#CCC" d="M43.453 11.813c.7 0 1.266.566 1.266 1.265v5.063a1.266 1.266 0 1 1-2.532 0v-5.063c0-.699.567-1.265 1.266-1.265zm-13.802 8.85a1.266 1.266 0 0 1 1.682-.612l4.588 2.14a1.266 1.266 0 0 1-1.07 2.294l-4.588-2.14a1.266 1.266 0 0 1-.612-1.681zm5.576-6.43a1.266 1.266 0 0 1 1.75.372l2.758 4.246a1.266 1.266 0 0 1-2.123 1.379l-2.757-4.246a1.266 1.266 0 0 1 .372-1.75z" mask="url(#b)"/></g></svg>