<svg xmlns="http://www.w3.org/2000/svg" xmlns:xlink="http://www.w3.org/1999/xlink" width="108" height="108" viewBox="0 0 108 108"><defs><path id="a" d="M25 29h58a1 1 0 0 1 1 1v48a1 1 0 0 1-1 1H25a1 1 0 0 1-1-1V30a1 1 0 0 1 1-1z"/><rect id="b" width="25" height="20" y=".313" rx="3"/><rect id="d" width="25" height="20" x=".313" y=".313" rx="3"/><rect id="f" width="25" height="20" y=".938" rx="3"/><rect id="h" width="25" height="20" x=".313" y=".938" rx="3"/></defs><g fill="none" fill-rule="evenodd"><circle cx="54" cy="54" r="54" fill="#F0F0F0"/><path fill="#CCC" fill-rule="nonzero" d="M90 30.667a1 1 0 0 1-2 0V29a4 4 0 0 0-4-4h-8.333a1 1 0 1 1 0-2H84a6 6 0 0 1 6 6v1.667zM32.333 85H24a6 6 0 0 1-6-6v-1.667a1 1 0 0 1 2 0V79a4 4 0 0 0 4 4h8.333a1 1 0 0 0 0 2z"/><g stroke-linecap="round" stroke-linejoin="round"><use fill="#FFF" xlink:href="#a"/><path stroke="#111" stroke-width="2" d="M25 28h58a2 2 0 0 1 2 2v48a2 2 0 0 1-2 2H25a2 2 0 0 1-2-2V30a2 2 0 0 1 2-2z"/></g><g transform="translate(27 55.688)"><mask id="c" fill="#fff"><use xlink:href="#b"/></mask><use fill="#CCC" xlink:href="#b"/><circle cx="13" cy="21" r="7" fill="#FFF" mask="url(#c)"/><circle cx="13" cy="9" r="3" fill="#FFF" mask="url(#c)"/></g><g transform="translate(55.688 55.688)"><mask id="e" fill="#fff"><use xlink:href="#d"/></mask><use fill="#5B9E4D" xlink:href="#d"/><circle cx="13" cy="21" r="7" fill="#FFF" mask="url(#e)"/><circle cx="13" cy="9" r="3" fill="#FFF" mask="url(#e)"/></g><g transform="translate(27 31.063)"><mask id="g" fill="#fff"><use xlink:href="#f"/></mask><use fill="#5B9E4D" xlink:href="#f"/><circle cx="13" cy="21" r="7" fill="#FFF" mask="url(#g)"/><circle cx="13" cy="9" r="3" fill="#FFF" mask="url(#g)"/></g><g transform="translate(55.688 31.063)"><mask id="i" fill="#fff"><use xlink:href="#h"/></mask><use fill="#CCC" xlink:href="#h"/><path fill="#FFF" d="M11.358 15.224a8.963 8.963 0 0 0-2.046 5.713c0 2.17.768 4.16 2.046 5.714a7 7 0 1 1 0-11.426z" mask="url(#i)"/><circle cx="7.313" cy="8.938" r="3" fill="#FFF" mask="url(#i)"/><circle cx="18.313" cy="20.938" r="7" fill="#FFF" mask="url(#i)"/><circle cx="18.313" cy="8.938" r="3" fill="#FFF" mask="url(#i)"/></g></g></svg>