<svg xmlns="http://www.w3.org/2000/svg" width="108" height="108" viewBox="0 0 108 108"><g fill="none" fill-rule="evenodd"><circle cx="54" cy="54" r="54" fill="#F0F0F0"/><path fill="#FFF" stroke="#111" stroke-width="2" d="M48.975 72.293c-6.027 0-10.888-.751-14.815-2.016-2.956 2.78-5.933 5.02-8.932 6.722-.644.365-1.594-.352-1.478-1 .385-2.151 1.072-5.531 2.063-10.14-6.332-5.225-7.594-12.61-7.594-18.166 0-9.576 3.766-25.193 30.802-25.193s30.791 14.386 30.791 23.962c.003 9.576-3.8 25.83-30.837 25.83z"/><path fill="#5B9E4D" d="M86.518 78.44c.598 3.775 1.055 6.345 1.373 7.71.112.481-.67.895-1.132.625-2.405-1.406-4.851-3.289-7.339-5.647-2.313.475-4.99.746-8.093.746-19.63 0-22.39-11.579-22.39-18.4 0-6.82 2.726-17.068 22.356-17.068 19.63 0 22.363 11.123 22.363 17.943 0 4.388-1.124 10.371-7.138 14.09z"/><path fill="#FFF" d="M77 61a2 2 0 0 1 2 2v6a2 2 0 0 1-2 2H67a2 2 0 0 1-2-2v-6a2 2 0 0 1 2-2v-2a5 5 0 0 1 10 0v2zm-2 0v-2h-6v2h6zm-6-2h6a3 3 0 0 0-6 0z"/><path fill="#CCC" d="M57.797 37.125c.699 0 1.266.567 1.266 1.266v5.062a1.266 1.266 0 1 1-2.532 0v-5.062c0-.7.567-1.266 1.266-1.266zm-13.803 8.851a1.266 1.266 0 0 1 1.682-.612l4.589 2.14a1.266 1.266 0 0 1-1.07 2.293l-4.588-2.139a1.266 1.266 0 0 1-.613-1.682zm5.577-6.43a1.266 1.266 0 0 1 1.75.372l2.758 4.246a1.266 1.266 0 0 1-2.123 1.378l-2.757-4.245a1.266 1.266 0 0 1 .372-1.751z"/></g></svg>