<svg xmlns="http://www.w3.org/2000/svg" xmlns:xlink="http://www.w3.org/1999/xlink" width="108" height="108"><defs><path id="a" d="M80.418 78.984l-1.414 1.414a2 2 0 0 1-2.829 0l-10.46-10.461c-9.416 7.333-23.031 6.69-31.688-1.966-9.373-9.374-9.373-24.571 0-33.943 9.373-9.374 24.57-9.374 33.943 0 8.65 8.649 9.298 22.249 1.983 31.664l10.464 10.464c.782.782.782 2.047.001 2.828z"/></defs><g fill="none" fill-rule="evenodd"><circle cx="54" cy="54" r="54"/><g stroke-linecap="round" stroke-linejoin="round"><use fill="#FFF" xlink:href="#a"/><path stroke="#111" stroke-width="2" d="M65.621 71.258c-9.855 7.132-23.572 6.148-32.301-2.58-9.764-9.764-9.764-25.595 0-35.357 9.763-9.765 25.594-9.765 35.357 0 8.721 8.72 9.712 22.422 2.596 32.277l9.851 9.85a2.999 2.999 0 0 1 .001 4.243l-1.414 1.414a3 3 0 0 1-4.243 0l-9.847-9.847z"/></g><path fill="#F1A031" d="M64.29 37.592c-7.372-7.373-19.326-7.373-26.698 0s-7.373 19.325 0 26.699c7.373 7.372 19.327 7.372 26.699 0 7.373-7.374 7.372-19.327 0-26.699z"/><path fill="#FFF" d="M58.856 50.416l-9.394 11.018a1.003 1.003 0 0 1-.773.36c-.51 0-.926-.351-.926-.786 0-.006.527-2.569 1.579-7.69a.663.663 0 0 0 .054-.235c0-.434-.414-.785-.923-.785l-4.41-.018c-.036.004-.07.02-.106.02-.511 0-.926-.352-.926-.788 0-.145.06-.272.14-.39l9.285-11.067a.991.991 0 0 1 .8-.399c.51 0 .925.354.925.786 0 .008-.502 2.548-1.508 7.618a.679.679 0 0 0-.075.31c0 .433.415.785.924.785.012 0 .034.002.067.008h4.502c.017 0 .032-.008.048-.008.509 0 .923.351.923.787a.692.692 0 0 1-.206.474z"/><path fill="#CCC" d="M32.246 14.16a1.266 1.266 0 0 1 0 1.79l-2.386 2.387a1.266 1.266 0 1 1-1.79-1.79l2.386-2.387a1.266 1.266 0 0 1 1.79 0zm0 11.336a1.266 1.266 0 0 1-1.79 0L28.07 23.11a1.266 1.266 0 1 1 1.79-1.79l2.386 2.386a1.266 1.266 0 0 1 0 1.79zm-11.336 0a1.266 1.266 0 0 1 0-1.79l2.387-2.386a1.266 1.266 0 1 1 1.79 1.79L22.7 25.496a1.266 1.266 0 0 1-1.79 0zm0-11.336a1.266 1.266 0 0 1 1.79 0l2.387 2.387a1.266 1.266 0 1 1-1.79 1.79L20.91 15.95a1.266 1.266 0 0 1 0-1.79zm71.14 38.071a1.266 1.266 0 0 1 0 1.79l-1.193 1.193a1.266 1.266 0 1 1-1.79-1.79l1.193-1.193a1.266 1.266 0 0 1 1.79 0zm0 7.756a1.266 1.266 0 0 1-1.79 0l-1.193-1.193a1.266 1.266 0 1 1 1.79-1.79l1.193 1.194a1.266 1.266 0 0 1 0 1.79zm-7.756 0a1.266 1.266 0 0 1 0-1.79l1.193-1.193a1.266 1.266 0 1 1 1.79 1.79l-1.193 1.193a1.266 1.266 0 0 1-1.79 0zm0-7.756a1.266 1.266 0 0 1 1.79 0l1.193 1.194a1.266 1.266 0 1 1-1.79 1.79l-1.193-1.194a1.266 1.266 0 0 1 0-1.79z"/></g></svg>