<svg xmlns="http://www.w3.org/2000/svg" xmlns:xlink="http://www.w3.org/1999/xlink" width="108" height="108" viewBox="0 0 108 108"><defs><path id="a" d="M80.418 78.984l-1.414 1.414a2 2 0 0 1-2.829 0l-10.46-10.461c-9.416 7.333-23.031 6.69-31.688-1.966-9.373-9.374-9.373-24.571 0-33.943 9.373-9.374 24.57-9.374 33.943 0 8.65 8.649 9.298 22.249 1.983 31.664l10.464 10.464c.782.782.782 2.047.001 2.828z"/></defs><g fill="none" fill-rule="evenodd"><circle cx="54" cy="54" r="54" fill="#F0F0F0"/><path fill="#CCC" fill-rule="nonzero" d="M80.06 37.578l-1.657 1.186a29.93 29.93 0 0 0-6.148-8.89 29.905 29.905 0 0 0-10.097-6.66l1.196-1.673A31.909 31.909 0 0 1 73.67 28.46a31.936 31.936 0 0 1 6.391 9.12zm.732-6.774l-1.552 1.275a34.171 34.171 0 0 0-4.157-5.034 34.104 34.104 0 0 0-6.124-4.863l1.281-1.558a36.124 36.124 0 0 1 6.257 5.007 36.193 36.193 0 0 1 4.295 5.173z"/><g stroke-linecap="round" stroke-linejoin="round"><use fill="#FFF" xlink:href="#a"/><path stroke="#111" stroke-width="2" d="M65.621 71.258c-9.855 7.132-23.572 6.148-32.301-2.58-9.764-9.764-9.764-25.595 0-35.357 9.763-9.765 25.594-9.765 35.357 0 8.721 8.72 9.712 22.422 2.596 32.277l9.851 9.85a2.999 2.999 0 0 1 .001 4.243l-1.414 1.414a3 3 0 0 1-4.243 0l-9.847-9.847z"/></g><path fill="#66ABFF" d="M64.29 37.592c-7.372-7.373-19.326-7.373-26.698 0s-7.373 19.325 0 26.699c7.373 7.372 19.327 7.372 26.699 0 7.373-7.374 7.372-19.327 0-26.699z"/><path stroke="#FFF" stroke-width="2" d="M41.015 46.978c.244 6.466 3.54 11.397 9.985 14.89 6.445-3.493 9.74-8.424 9.985-14.89-4.023-1.026-7.357-2.865-9.985-5.516-2.627 2.651-5.962 4.49-9.985 5.516z"/><path fill="#FFF" d="M51 41.77c2.124 1.588 3.784 2.702 4.979 3.34 1.195.638 2.855 1.296 4.98 1.975-.214 2.128-.479 3.691-.795 4.692-.317 1-1.017 2.482-2.1 4.447-1.33 1.494-2.326 2.477-2.99 2.948-.664.47-2.022 1.346-4.074 2.626V41.77z"/></g></svg>