<svg xmlns="http://www.w3.org/2000/svg" xmlns:xlink="http://www.w3.org/1999/xlink" width="108" height="108" viewBox="0 0 108 108"><defs><path id="a" d="M80.418 78.984l-1.414 1.414a2 2 0 0 1-2.829 0l-10.46-10.461c-9.416 7.333-23.031 6.69-31.688-1.966-9.373-9.374-9.373-24.571 0-33.943 9.373-9.374 24.57-9.374 33.943 0 8.65 8.649 9.298 22.249 1.983 31.664l10.464 10.464c.782.782.782 2.047.001 2.828z"/></defs><g fill="none" fill-rule="evenodd"><circle cx="54" cy="54" r="54" fill="#F0F0F0"/><g stroke-linecap="round" stroke-linejoin="round"><use fill="#FFF" xlink:href="#a"/><path stroke="#111" stroke-width="2" d="M65.621 71.258c-9.855 7.132-23.572 6.148-32.301-2.58-9.764-9.764-9.764-25.595 0-35.357 9.763-9.765 25.594-9.765 35.357 0 8.721 8.72 9.712 22.422 2.596 32.277l9.851 9.85a2.999 2.999 0 0 1 .001 4.243l-1.414 1.414a3 3 0 0 1-4.243 0l-9.847-9.847z"/></g><path fill="#5B9E4D" d="M64.29 37.592c-7.372-7.373-19.326-7.373-26.698 0s-7.373 19.325 0 26.699c7.373 7.372 19.327 7.372 26.699 0 7.373-7.374 7.372-19.327 0-26.699z"/><path fill="#FFF" d="M56 49a2 2 0 0 1 2 2v6a2 2 0 0 1-2 2H46a2 2 0 0 1-2-2v-6a2 2 0 0 1 2-2v-2a5 5 0 0 1 10 0v2zm-2 0v-2h-6v2h6zm-6-2h6a3 3 0 0 0-6 0z"/><path fill="#CCC" d="M62.86 15.188c-.699 0-1.266.566-1.266 1.265v5.063a1.266 1.266 0 1 0 2.532 0v-5.063c0-.699-.567-1.265-1.266-1.265zm13.802 8.85a1.266 1.266 0 0 0-1.682-.612l-4.588 2.14a1.266 1.266 0 0 0 1.07 2.294l4.588-2.14a1.266 1.266 0 0 0 .612-1.681zm-5.576-6.43a1.266 1.266 0 0 0-1.75.372l-2.758 4.246a1.266 1.266 0 0 0 2.123 1.379l2.757-4.246c.38-.586.214-1.37-.372-1.75z"/></g></svg>