<svg xmlns="http://www.w3.org/2000/svg" xmlns:xlink="http://www.w3.org/1999/xlink" width="108" height="108" viewBox="0 0 108 108"><defs><path id="a" d="M.344.219h82v22h-82z"/><path id="c" d="M6.344 17.008c10.621 0 17.493-4.762 27.237-4.79a6.744 6.744 0 0 1 6.763 6.745v4.256a1 1 0 0 1-1 1h-32a1 1 0 0 1-1-1v-6.211zm70 0v6.21a1 1 0 0 1-1 1h-32a1 1 0 0 1-1-1v-4.274a6.744 6.744 0 0 1 6.762-6.725c9.745.027 16.616 4.789 27.238 4.789z"/><path id="d" d="M20.344 59.875h14v16l-7.003-2.4-6.997 2.4z"/></defs><g fill="none" fill-rule="evenodd"><circle cx="54" cy="54" r="54" fill="#F0F0F0"/><g transform="translate(12.656 10.125)"><g transform="translate(0 40.656)"><mask id="b" fill="#fff"><use xlink:href="#a"/></mask><g stroke-linecap="round" stroke-linejoin="round" mask="url(#b)"><use fill="#FFF" xlink:href="#c"/><path stroke="#111" stroke-width="2" d="M6.344 16.008c4.34 0 7.508-.62 13.714-2.358a1541.459 1541.459 0 0 1 1.657-.462c4.97-1.374 8.126-1.959 11.863-1.97a7.744 7.744 0 0 1 7.766 7.724v4.277a2 2 0 0 1-2 2h-32a2 2 0 0 1-2-2v-7.211h1zm71 0v7.21a2 2 0 0 1-2 2h-32a2 2 0 0 1-2-2v-4.276a7.744 7.744 0 0 1 7.765-7.723c3.737.01 6.893.595 11.864 1.969a278.613 278.613 0 0 1 1.657.462c6.205 1.738 9.374 2.358 13.714 2.358h1z"/></g></g><rect width="80" height="4" x="1.344" y="62.875" fill="#DE5833" rx="2"/><use fill="#FFF" xlink:href="#d"/><path stroke="#111" stroke-width="2" d="M21.344 60.875v13.6l5.997-2.057 6.003 2.057v-13.6h-12z"/><path fill="#CCC" d="M38.39 42.188a1.266 1.266 0 1 1 0 2.53 1.266 1.266 0 0 1 0-2.53zm3.797 3.796a1.266 1.266 0 1 1-2.53 0 1.266 1.266 0 0 1 2.53 0zm-3.796 3.797a1.266 1.266 0 1 1 0-2.531 1.266 1.266 0 0 1 0 2.531zm-3.797-3.797a1.266 1.266 0 1 1 2.531 0 1.266 1.266 0 0 1-2.531 0zM49.36 28.688c.698 0 1.265.566 1.265 1.265v1.688a1.266 1.266 0 1 1-2.531 0v-1.688c0-.699.566-1.265 1.265-1.265zm5.484 5.484c0 .699-.567 1.266-1.266 1.266h-1.687a1.266 1.266 0 1 1 0-2.532h1.687c.7 0 1.266.567 1.266 1.266zm-5.485 5.484a1.266 1.266 0 0 1-1.265-1.265v-1.688a1.266 1.266 0 1 1 2.531 0v1.688c0 .699-.567 1.265-1.266 1.265zm-5.484-5.484c0-.7.567-1.266 1.266-1.266h1.687a1.266 1.266 0 1 1 0 2.532h-1.687a1.266 1.266 0 0 1-1.266-1.266zM28.266 17.719c.699 0 1.265.566 1.265 1.265v2.532a1.266 1.266 0 1 1-2.531 0v-2.532c0-.699.567-1.265 1.266-1.265zm7.172 7.172c0 .699-.567 1.265-1.266 1.265H31.64a1.266 1.266 0 1 1 0-2.531h2.53c.7 0 1.267.567 1.267 1.266zm-7.172 7.172A1.266 1.266 0 0 1 27 30.797v-2.531a1.266 1.266 0 1 1 2.531 0v2.53c0 .7-.566 1.267-1.265 1.267zm-7.172-7.172c0-.7.566-1.266 1.265-1.266h2.532a1.266 1.266 0 1 1 0 2.531h-2.532a1.266 1.266 0 0 1-1.265-1.265zM52.734 0C53.434 0 54 .567 54 1.266v4.218a1.266 1.266 0 1 1-2.531 0V1.266c0-.7.566-1.266 1.265-1.266zm9.703 9.703c0 .7-.566 1.266-1.265 1.266h-4.219a1.266 1.266 0 1 1 0-2.531h4.219c.699 0 1.266.566 1.266 1.265zm-9.703 9.703a1.266 1.266 0 0 1-1.265-1.265v-4.22a1.266 1.266 0 1 1 2.531 0v4.22c0 .699-.567 1.265-1.266 1.265zm-9.703-9.703c0-.699.567-1.265 1.266-1.265h4.219a1.266 1.266 0 1 1 0 2.53h-4.22a1.266 1.266 0 0 1-1.265-1.265z"/></g></g></svg>