<svg xmlns="http://www.w3.org/2000/svg" xmlns:xlink="http://www.w3.org/1999/xlink" width="13" height="13"><use xlink:href="#a"/><defs><path id="a" fill-rule="evenodd" d="M10.36 8.545c-.748.633-3.202 2.242-4.459 3.057V9.504a.494.494 0 0 0-.494-.494h-.26c-2.41 0-4.16-1.629-4.16-3.874C.987 2.81 2.808.988 5.134.988l2.73.006c2.325 0 4.146 1.821 4.148 4.145 0 1.257-.619 2.53-1.653 3.406zM7.865.007h-.001L5.135 0v.001L5.134 0C2.255 0 0 2.256 0 5.136c0 2.697 2.097 4.743 4.914 4.851v2.52c0 .071.028.188.077.266a.494.494 0 0 0 .682.15c.173-.11 4.26-2.725 5.323-3.624C12.249 8.238 12.997 6.687 13 5.145v-.012C12.996 2.259 10.742.008 7.866.007z"/></defs></svg>