<svg xmlns="http://www.w3.org/2000/svg" xmlns:xlink="http://www.w3.org/1999/xlink" width="12" height="12"><use fill="#1CA1F2" transform="translate(-.01 -.006) scale(.99288)" xlink:href="#a"/><defs><path id="a" fill-rule="evenodd" d="M8.278 4.412L5.784 8.153a.431.431 0 0 1-.599.119l-.065-.053-1.391-1.39a.432.432 0 0 1 .611-.61l1.017 1.017 2.202-3.303a.431.431 0 1 1 .719.479zm3.808 1.919c0-.91-.504-1.698-1.237-2.072.09-.25.138-.521.138-.806 0-1.271-.983-2.301-2.197-2.301-.272 0-.531.048-.77.143C7.665.527 6.913 0 6.043 0c-.869 0-1.621.527-1.979 1.295a2.068 2.068 0 0 0-.768-.143c-1.214 0-2.198 1.03-2.198 2.301 0 .285.049.556.137.806C.504 4.633 0 5.421 0 6.331c0 .86.45 1.61 1.117 2.006a2.4 2.4 0 0 0-.019.296c0 1.272.984 2.301 2.198 2.301.27 0 .53-.048.768-.142.358.766 1.11 1.294 1.979 1.294.87 0 1.622-.528 1.977-1.294.239.094.498.142.77.142 1.214 0 2.197-1.029 2.197-2.301 0-.101-.008-.199-.02-.296a2.328 2.328 0 0 0 1.119-2.006z"/></defs></svg>