<svg xmlns="http://www.w3.org/2000/svg" xmlns:xlink="http://www.w3.org/1999/xlink" width="17" height="11"><use transform="translate(.001 .009) scale(.96044)" xlink:href="#a"/><defs><path id="a" fill-rule="evenodd" d="M16.26 7.96a.493.493 0 1 1 .698.698l-2.518 2.519a.495.495 0 0 1-.698 0l-2.518-2.518a.494.494 0 0 1 .699-.698l1.673 1.675V2.469c0-.818-.664-1.482-1.48-1.482H7.739a.493.493 0 1 1 0-.987h4.377a2.47 2.47 0 0 1 2.468 2.469v7.167l1.675-1.675zM4.986 10.467h4.377a.493.493 0 1 1 0 .987H4.986a2.472 2.472 0 0 1-2.469-2.468V1.818L.843 3.492a.494.494 0 1 1-.699-.698L2.663.277a.49.49 0 0 1 .697 0l2.52 2.517a.494.494 0 0 1-.699.698L3.506 1.818v7.167c0 .817.664 1.481 1.48 1.481z"/></defs></svg>