<svg xmlns="http://www.w3.org/2000/svg" xmlns:xlink="http://www.w3.org/1999/xlink" width="13" height="12"><use transform="translate(-.004 -.002) scale(.96393)" xlink:href="#a"/><defs><path id="a" fill-rule="evenodd" d="M3.557.988C2.19.988.988 2.297.988 3.788c0 3.779 4.63 7.633 5.628 7.674.998-.041 5.628-3.895 5.628-7.674 0-1.491-1.202-2.8-2.57-2.8-1.665 0-2.594 1.932-2.602 1.951-.152.37-.76.37-.912 0C6.151 2.92 5.222.988 3.557.988zm3.059 11.461h-.009C4.907 12.418 0 7.986 0 3.788 0 1.77 1.662 0 3.557 0c1.508 0 2.521 1.041 3.059 1.797C7.153 1.041 8.166 0 9.673 0c1.895 0 3.558 1.77 3.558 3.788 0 4.198-4.906 8.63-6.607 8.661h-.008z"/></defs></svg>